<?xml version="1.0" encoding="UTF-8" standalone="no"?>
<!-- Created with Inkscape (http://www.inkscape.org/) -->

<svg
   width="81.244308mm"
   height="25.947624mm"
   viewBox="0 0 81.244309 25.947624"
   version="1.1"
   id="svg1"
   xml:space="preserve"
   xmlns:xlink="http://www.w3.org/1999/xlink"
   xmlns="http://www.w3.org/2000/svg"
   xmlns:svg="http://www.w3.org/2000/svg"><defs
     id="defs1"><linearGradient
       id="linearGradient234"><stop
         style="stop-color:#49b375;stop-opacity:1;"
         offset="0"
         id="stop234" /><stop
         style="stop-color:#d017f3;stop-opacity:0.92156863;"
         offset="1"
         id="stop235" /></linearGradient><linearGradient
       xlink:href="#linearGradient234"
       id="linearGradient669"
       gradientUnits="userSpaceOnUse"
       x1="66.665085"
       y1="244.57655"
       x2="123.93806"
       y2="244.57655"
       gradientTransform="translate(17.399245,4.1159503)" /><pattern
       xlink:href="#pattern146"
       preserveAspectRatio="xMidYMid"
       id="pattern167"
       patternTransform="matrix(0.18948277,-0.05100896,0.05121528,0.19024919,189.77221,1416.2629)"
       x="0"
       y="0" /><pattern
       xlink:href="#pattern65"
       preserveAspectRatio="xMidYMid"
       id="pattern146"
       patternTransform="matrix(0.18948277,-0.05100896,0.05077175,0.19036804,247.9667,1566.9418)" /><pattern
       xlink:href="#pattern57"
       preserveAspectRatio="xMidYMid"
       id="pattern65"
       patternTransform="matrix(0.18948277,-0.05100896,0.05077175,0.19036804,301.09988,1661.9828)" /><pattern
       xlink:href="#shading26"
       preserveAspectRatio="xMidYMid"
       id="pattern57"
       patternTransform="matrix(0.18833975,-0.04841652,0.05046548,0.1806929,212.23022,1590.07)"
       x="0"
       y="0" /><pattern
       patternUnits="userSpaceOnUse"
       width="458.91419"
       height="32.1666"
       patternTransform="translate(213.95313,1661.1855) scale(0.50)"
       preserveAspectRatio="xMidYMid"
       id="shading26"
       style="fill:#000000"><path
         style="fill-rule:nonzero;stroke:none;stroke-width:0.1;stroke-linecap:square;paint-order:markers fill stroke;stop-color:#000000"
         d="m 1805.253,-758.46472 c 2.0199,-1.6381 19.9642,8.10228 21.9841,6.46418 21.6198,-17.53283 46.2727,-37.64976 73.5246,-59.981 v 0 c 25.9809,19.65985 54.0444,40.83546 83.863,63.2885 l 10.6075,7.98549 10.4529,-7.68367 c 27.0646,-19.89942 55.5585,-40.88668 85.2364,-62.77519 v 0 c 27.7606,18.37638 56.4868,37.37105 85.989,56.86265 l 8.4807,5.6026 8.226,-5.34235 c 28.4598,-18.48466 57.6391,-37.45176 87.3659,-56.7859 v 0 c 28.9846,16.55965 58.4587,33.38981 88.2675,50.40499 l 6.2651,3.57611 6.0027,-3.36923 c 29.5517,-16.58735 59.4322,-33.36536 89.4887,-50.24537 v 0 c 30.0302,14.47678 60.2186,29.02709 90.4154,43.58131 l 4.2068,2.02761 3.9808,-1.87912 c 30.5113,-14.40273 61.0311,-28.80967 91.403,-43.14415 30.9776,12.19206 61.7896,24.32173 92.2716,36.32702 l 2.456,0.9673 2.2912,-0.87545 c 31.4044,-11.99933 62.4587,-23.85885 92.9812,-35.50596 v 0 c 31.8985,9.7531 63.2067,19.33577 93.7183,28.6884 l 1.1227,0.34414 1.0302,-0.30014 c 32.3552,-9.4259 63.8161,-18.57513 94.1348,-27.37102 33.0276,7.23306 64.6894,14.19252 94.6654,20.81424 l 0.2874,0.0635 0.2604,-0.0518 c 33.9102,-6.74391 65.6711,-13.01584 94.819,-18.71395 v 0 c 35.9763,4.87029 67.9479,9.29314 95.0397,13.17078 -27.1102,-3.88028 -59.0638,-8.60724 -94.9917,-14.02894 l -0.067,-0.0101 -0.073,0.0131 c -29.166,5.24521 -60.9646,10.90129 -94.9296,16.89548 v 0 c -29.945,-7.29193 -61.5634,-15.02639 -94.536,-23.11898 l -0.5817,-0.14278 -0.639,0.1683 c -30.3517,7.994 -61.8539,16.26941 -94.2589,24.76558 v 0 c -30.4835,-10.24387 -61.7575,-20.76785 -93.6151,-31.49861 l -1.6023,-0.53972 -1.7314,0.6061 c -30.5409,10.69114 -61.6186,21.56098 -93.0524,32.54935 v 0 c -30.4769,-13.00991 -61.279,-26.16438 -92.2405,-39.38965 l -3.0877,-1.31894 -3.2854,1.43846 c -30.361,13.29293 -60.8752,26.65035 -91.3881,40.00719 v 0 c -30.226,-15.62318 -60.4371,-31.23836 -90.4809,-46.76407 l -4.9574,-2.56184 -5.2057,2.73972 c -30.0066,15.79238 -59.8462,31.49984 -89.3693,47.04623 v 0 c -29.8816,-18.11236 -59.4157,-36.00744 -88.4434,-53.58593 l -7.0991,-4.2989 -7.365,4.53346 c -29.6279,18.23811 -58.7274,36.16094 -87.1317,53.6691 -29.6324,-20.57281 -58.4593,-40.56911 -86.2836,-59.84778 l -9.3564,-6.4819 -9.5787,6.76494 c -29.5053,20.84087 -57.8757,40.90538 -84.878,60.03398 v 0 c -30.0663,-23.44287 -58.2811,-45.39239 -84.2942,-65.56618 l -11.4535,-8.87805 -11.4711,9.19271 c -32.0177,25.67056 -60.6296,48.71345 -85.1752,68.61894 -2.0199,1.6381 3.8046,21.20709 1.7847,22.84519 z m 0,46.41401 c 2.0199,-1.6381 19.9642,8.10228 21.9841,6.46418 21.6198,-17.53283 46.2727,-37.64976 73.5246,-59.981 v 0 c 25.9809,19.65985 54.0444,40.83546 83.863,63.2885 l 10.6075,7.98549 10.4529,-7.68367 c 27.0646,-19.89942 55.5585,-40.88668 85.2364,-62.77519 v 0 c 27.7606,18.37638 56.4868,37.37105 85.989,56.86265 l 8.4807,5.6026 8.226,-5.34235 c 28.4598,-18.48466 57.6391,-37.45176 87.3659,-56.7859 v 0 c 28.9846,16.55965 58.4587,33.38981 88.2675,50.40499 l 6.2651,3.57611 6.0027,-3.36923 c 29.5517,-16.58735 59.4322,-33.36536 89.4887,-50.24537 v 0 c 30.0302,14.47678 60.2186,29.02709 90.4154,43.58131 l 4.2068,2.02761 3.9808,-1.87912 c 30.5113,-14.40273 61.0311,-28.80967 91.403,-43.14415 30.9776,12.19206 61.7896,24.32173 92.2716,36.32702 l 2.456,0.9673 2.2912,-0.87545 c 31.4044,-11.99933 62.4587,-23.85885 92.9812,-35.50596 v 0 c 31.8985,9.75309 63.2067,19.33577 93.7183,28.6884 l 1.1227,0.34414 1.0302,-0.30014 c 32.3552,-9.4259 63.8161,-18.57513 94.1348,-27.37103 33.0276,7.23307 64.6894,14.19253 94.6654,20.81425 l 0.2874,0.0635 0.2604,-0.0518 c 33.9102,-6.74391 65.6711,-13.01584 94.819,-18.71395 v 0 c 35.9763,4.87029 67.9479,9.29314 95.0397,13.17078 -27.1102,-3.88028 -59.0638,-8.60724 -94.9917,-14.02894 l -0.067,-0.0101 -0.073,0.0131 c -29.166,5.24521 -60.9646,10.90129 -94.9296,16.89548 v 0 c -29.945,-7.29193 -61.5634,-15.02639 -94.536,-23.11899 l -0.5817,-0.14277 -0.639,0.1683 c -30.3517,7.994 -61.8539,16.26941 -94.2589,24.76558 v 0 c -30.4835,-10.24387 -61.7575,-20.76785 -93.6151,-31.49861 l -1.6023,-0.53972 -1.7314,0.6061 c -30.5409,10.69114 -61.6186,21.56098 -93.0524,32.54935 v 0 c -30.4769,-13.00991 -61.279,-26.16438 -92.2405,-39.38965 l -3.0877,-1.31894 -3.2854,1.43846 c -30.361,13.29292 -60.8752,26.65035 -91.3881,40.00719 v 0 c -30.226,-15.62318 -60.4371,-31.23836 -90.4809,-46.76407 l -4.9574,-2.56184 -5.2057,2.73972 c -30.0066,15.79238 -59.8462,31.49984 -89.3693,47.04623 v 0 c -29.8816,-18.11237 -59.4157,-36.00744 -88.4434,-53.58593 l -7.0991,-4.2989 -7.365,4.53346 c -29.6279,18.23811 -58.7274,36.16094 -87.1317,53.6691 -29.6324,-20.57281 -58.4593,-40.56911 -86.2836,-59.84778 l -9.3564,-6.4819 -9.5787,6.76494 c -29.5053,20.84087 -57.8757,40.90538 -84.878,60.03398 v 0 c -30.0663,-23.44287 -58.2811,-45.39239 -84.2942,-65.56618 l -11.4535,-8.87805 -11.4711,9.19271 c -32.0177,25.67056 -60.6296,48.71345 -85.1752,68.61894 -2.0199,1.6381 3.8046,21.20709 1.7847,22.84519 z m 0,46.41401 c 2.0199,-1.6381 19.9642,8.10228 21.9841,6.46418 21.6198,-17.53283 46.2727,-37.64976 73.5246,-59.981 v 0 c 25.9809,19.65985 54.0444,40.83546 83.863,63.2885 l 10.6075,7.98549 10.4529,-7.68367 c 27.0646,-19.89942 55.5585,-40.88668 85.2364,-62.77519 v 0 c 27.7606,18.37638 56.4868,37.37105 85.989,56.86265 l 8.4807,5.6026 8.226,-5.34235 c 28.4598,-18.48466 57.6391,-37.45176 87.3659,-56.78591 v 0 c 28.9846,16.55966 58.4587,33.38982 88.2675,50.405 l 6.2651,3.57611 6.0027,-3.36923 c 29.5517,-16.58735 59.4322,-33.36536 89.4887,-50.24537 v 0 c 30.0302,14.47678 60.2186,29.02709 90.4154,43.58131 l 4.2068,2.02761 3.9808,-1.87912 c 30.5113,-14.40274 61.0311,-28.80967 91.403,-43.14415 30.9776,12.19206 61.7896,24.32173 92.2716,36.32702 l 2.456,0.9673 2.2912,-0.87545 c 31.4044,-11.99933 62.4587,-23.85885 92.9812,-35.50596 v 0 c 31.8985,9.75309 63.2067,19.33577 93.7183,28.6884 l 1.1227,0.34414 1.0302,-0.30014 c 32.3552,-9.4259 63.8161,-18.57513 94.1348,-27.37103 33.0276,7.23307 64.6894,14.19253 94.6654,20.81425 l 0.2874,0.0635 0.2604,-0.0518 c 33.9102,-6.74391 65.6711,-13.01584 94.819,-18.71395 v 0 c 35.9763,4.87029 67.9479,9.29314 95.0397,13.17078 -27.1102,-3.88028 -59.0638,-8.60724 -94.9917,-14.02894 l -0.067,-0.0101 -0.073,0.0131 c -29.166,5.24521 -60.9646,10.90129 -94.9296,16.89547 v 0 c -29.945,-7.29193 -61.5634,-15.02638 -94.536,-23.11898 l -0.5817,-0.14277 -0.639,0.1683 c -30.3517,7.994 -61.8539,16.26941 -94.2589,24.76558 v 0 c -30.4835,-10.24387 -61.7575,-20.76785 -93.6151,-31.49861 l -1.6023,-0.53972 -1.7314,0.6061 c -30.5409,10.69114 -61.6186,21.56098 -93.0524,32.54935 v 0 c -30.4769,-13.00991 -61.279,-26.16438 -92.2405,-39.38965 l -3.0877,-1.31894 -3.2854,1.43846 c -30.361,13.29292 -60.8752,26.65034 -91.3881,40.00719 v 0 c -30.226,-15.62318 -60.4371,-31.23836 -90.4809,-46.76407 l -4.9574,-2.56184 -5.2057,2.73972 c -30.0066,15.79238 -59.8462,31.49984 -89.3693,47.04622 v 0 c -29.8816,-18.11236 -59.4157,-36.00743 -88.4434,-53.58592 l -7.0991,-4.2989 -7.365,4.53346 c -29.6279,18.2381 -58.7274,36.16094 -87.1317,53.6691 -29.6324,-20.57281 -58.4593,-40.56911 -86.2836,-59.84778 l -9.3564,-6.4819 -9.5787,6.76494 c -29.5053,20.84087 -57.8757,40.90538 -84.878,60.03398 v 0 c -30.0663,-23.44287 -58.2811,-45.39239 -84.2942,-65.56618 l -11.4535,-8.87805 -11.4711,9.19271 c -32.0177,25.67055 -60.6296,48.71345 -85.1752,68.61894 -2.0199,1.6381 3.8046,21.20709 1.7847,22.84519 z m 0,46.41401 c 2.0199,-1.6381 19.9642,8.10228 21.9841,6.46418 21.6198,-17.53283 46.2727,-37.64976 73.5246,-59.981 v 0 c 25.9809,19.65985 54.0444,40.83546 83.863,63.2885 l 10.6075,7.98549 10.4529,-7.68367 c 27.0646,-19.89942 55.5585,-40.88668 85.2364,-62.77519 v 0 c 27.7606,18.37638 56.4868,37.37105 85.989,56.86265 l 8.4807,5.6026 8.226,-5.34235 c 28.4598,-18.48466 57.6391,-37.45176 87.3659,-56.78591 v 0 c 28.9846,16.55966 58.4587,33.38982 88.2675,50.405 l 6.2651,3.57611 6.0027,-3.36923 c 29.5517,-16.58735 59.4322,-33.36536 89.4887,-50.24537 v 0 c 30.0302,14.47678 60.2186,29.02709 90.4154,43.58131 l 4.2068,2.02761 3.9808,-1.87913 c 30.5113,-14.40273 61.0311,-28.80966 91.403,-43.14414 30.9776,12.19206 61.7896,24.32173 92.2716,36.32702 l 2.456,0.9673 2.2912,-0.87545 c 31.4044,-11.99933 62.4587,-23.85885 92.9812,-35.50596 v 0 c 31.8985,9.75309 63.2067,19.33577 93.7183,28.6884 l 1.1227,0.34414 1.0302,-0.30014 c 32.3552,-9.4259 63.8161,-18.57513 94.1348,-27.37103 33.0276,7.23307 64.6894,14.19253 94.6654,20.81425 l 0.2874,0.0635 0.2604,-0.0518 c 33.9102,-6.74391 65.6711,-13.01584 94.819,-18.71395 v 0 c 35.9763,4.87029 67.9479,9.29314 95.0397,13.17078 -27.1102,-3.88028 -59.0638,-8.60724 -94.9917,-14.02894 l -0.067,-0.0101 -0.073,0.0131 c -29.166,5.24521 -60.9646,10.90129 -94.9296,16.89547 v 0 c -29.945,-7.29193 -61.5634,-15.02638 -94.536,-23.11898 l -0.5817,-0.14277 -0.639,0.1683 c -30.3517,7.994 -61.8539,16.26941 -94.2589,24.76558 v 0 c -30.4835,-10.24387 -61.7575,-20.76785 -93.6151,-31.49861 l -1.6023,-0.53972 -1.7314,0.6061 c -30.5409,10.69114 -61.6186,21.56098 -93.0524,32.54935 v 0 c -30.4769,-13.00991 -61.279,-26.16438 -92.2405,-39.38965 l -3.0877,-1.31894 -3.2854,1.43846 c -30.361,13.29292 -60.8752,26.65034 -91.3881,40.00719 v 0 c -30.226,-15.62319 -60.4371,-31.23836 -90.4809,-46.76407 l -4.9574,-2.56184 -5.2057,2.73972 c -30.0066,15.79238 -59.8462,31.49983 -89.3693,47.04622 v 0 c -29.8816,-18.11236 -59.4157,-36.00743 -88.4434,-53.58592 l -7.0991,-4.2989 -7.365,4.53346 c -29.6279,18.2381 -58.7274,36.16094 -87.1317,53.6691 -29.6324,-20.57281 -58.4593,-40.56911 -86.2836,-59.84778 l -9.3564,-6.4819 -9.5787,6.76494 c -29.5053,20.84087 -57.8757,40.90538 -84.878,60.03398 v 0 c -30.0663,-23.44287 -58.2811,-45.39239 -84.2942,-65.56618 l -11.4535,-8.87805 -11.4711,9.19271 c -32.0177,25.67055 -60.6296,48.71345 -85.1752,68.61894 -2.0199,1.6381 3.8046,21.20709 1.7847,22.84519 z m 0,46.41401 c 2.0199,-1.6381 19.9642,8.10228 21.9841,6.46418 21.6198,-17.53283 46.2727,-37.64976 73.5246,-59.981 v 0 c 25.9809,19.65985 54.0444,40.83546 83.863,63.2885 l 10.6075,7.98549 10.4529,-7.68367 c 27.0646,-19.89943 55.5585,-40.88668 85.2364,-62.77519 v 0 c 27.7606,18.37638 56.4868,37.37105 85.989,56.86265 l 8.4807,5.6026 8.226,-5.34235 c 28.4598,-18.48466 57.6391,-37.45176 87.3659,-56.78591 v 0 c 28.9846,16.55966 58.4587,33.38982 88.2675,50.40499 l 6.2651,3.57612 6.0027,-3.36923 c 29.5517,-16.58735 59.4322,-33.36536 89.4887,-50.24537 v 0 c 30.0302,14.47678 60.2186,29.02709 90.4154,43.58131 l 4.2068,2.02761 3.9808,-1.87913 c 30.5113,-14.40273 61.0311,-28.80966 91.403,-43.14414 30.9776,12.19206 61.7896,24.32173 92.2716,36.32701 l 2.456,0.9673 2.2912,-0.87544 c 31.4044,-11.99933 62.4587,-23.85885 92.9812,-35.50596 v 0 c 31.8985,9.75309 63.2067,19.33577 93.7183,28.6884 l 1.1227,0.34414 1.0302,-0.30014 c 32.3552,-9.4259 63.8161,-18.57513 94.1348,-27.37103 33.0276,7.23307 64.6894,14.19253 94.6654,20.81425 l 0.2874,0.0635 0.2604,-0.0518 c 33.9102,-6.74391 65.6711,-13.01584 94.819,-18.71395 v 0 c 35.9763,4.87029 67.9479,9.29314 95.0397,13.17078 -27.1102,-3.88028 -59.0638,-8.60724 -94.9917,-14.02894 l -0.067,-0.0101 -0.073,0.0131 c -29.166,5.24522 -60.9646,10.9013 -94.9296,16.89548 v 0 c -29.945,-7.29193 -61.5634,-15.02638 -94.536,-23.11898 l -0.5817,-0.14277 -0.639,0.1683 c -30.3517,7.994 -61.8539,16.26941 -94.2589,24.76558 v 0 c -30.4835,-10.24387 -61.7575,-20.76785 -93.6151,-31.49861 l -1.6023,-0.53972 -1.7314,0.6061 c -30.5409,10.69114 -61.6186,21.56098 -93.0524,32.54935 v 0 c -30.4769,-13.00991 -61.279,-26.16438 -92.2405,-39.38965 l -3.0877,-1.31894 -3.2854,1.43846 c -30.361,13.29292 -60.8752,26.65034 -91.3881,40.00719 v 0 c -30.226,-15.62319 -60.4371,-31.23836 -90.4809,-46.76407 l -4.9574,-2.56184 -5.2057,2.73972 c -30.0066,15.79238 -59.8462,31.49983 -89.3693,47.04622 v 0 c -29.8816,-18.11236 -59.4157,-36.00743 -88.4434,-53.58592 l -7.0991,-4.2989 -7.365,4.53345 c -29.6279,18.23811 -58.7274,36.16095 -87.1317,53.66911 -29.6324,-20.57281 -58.4593,-40.56911 -86.2836,-59.84778 l -9.3564,-6.4819 -9.5787,6.76494 c -29.5053,20.84087 -57.8757,40.90538 -84.878,60.03398 v 0 c -30.0663,-23.44287 -58.2811,-45.39239 -84.2942,-65.56618 l -11.4535,-8.87805 -11.4711,9.19271 c -32.0177,25.67055 -60.6296,48.71345 -85.1752,68.61894 -2.0199,1.6381 3.8046,21.20709 1.7847,22.84519 z"
         id="use24"
         clip-path="url(#clipPath54)"
         transform="matrix(0.30131154,0,0,0.34651807,-543.27542,274.5532)" /></pattern><clipPath
       clipPathUnits="userSpaceOnUse"
       id="clipPath54"><path
         id="path54"
         style="stroke-width:0.0999999;stroke-linecap:square;paint-order:markers fill stroke;stop-color:#000000"
         d="m 1691.1994,-792.32001 h 1634.8919 v 92.82806 H 1691.1994 Z" /></clipPath></defs><g
     id="layer1"
     transform="translate(-61.534221,-246.05988)"><path
       id="path659"
       style="fill:url(#linearGradient669);fill-opacity:1;fill-rule:evenodd;stroke:#000000;stroke-width:0.215;stroke-linecap:round;stroke-linejoin:round;stroke-dasharray:none;stroke-opacity:1"
       d="m 86.907377,246.17 -2.23761,4.964 56.206393,3e-5 -5.53868,-4.96403 z m -0.512134,0 L 61.82,246.17013 61.754629,255.5 h 7.295937 l -7.408851,16.4 h 79.101115 c 0,-9.86964 4.14335,-11.23523 0.28732,-20.41082 l -12.05611,11.24482 -49.862073,-3e-5 z m 23.754107,5.33 h -6.80992 c -1.52013,2.70624 -3.21629,5.86274 -4.737697,8.57115 -0.157392,-0.83037 -0.3178,-1.66976 -0.541569,-2.4319 l -0.09767,-0.33021 h 1.739945 c 1.005111,-1.81797 2.159571,-3.99108 3.164671,-5.80904 -2.60128,1e-5 -7.859982,0 -7.859982,0 -1.8585,3.37013 -3.84452,7.47987 -5.70302,10.85 1.2309,0.005 2.394858,-0.006 3.625618,0 l 2.011247,-3.15346 0.160197,0.50384 c 0.24409,0.76659 0.545009,1.88303 0.789099,2.64962 h 3.170866 c 1.46e-4,5.1e-4 3.71e-4,-0.001 5.17e-4,0 1.675378,0.003 4.077398,-0.003 5.752618,0 z m 0.76068,5e-5 -1.89033,3.81739 3.02307,-0.0191 -3.62975,7.05166 h 20.38635 L 140.4984,251.5 h -12.50053 l -3.41013,7.43657 c -4.56735,0.011 -6.46814,0.002 -11.0355,0.008 l 3.47007,-7.44456 z m -26.364681,-5e-5 -4.859774,10.85 h 8.730734 l 1.528588,-2.88301 -5.872509,0.10852 0.868681,-1.63142 4.990909,-0.0543 1.304314,-2.24328 -5.287533,-0.0543 0.767912,-1.43867 h 6.107637 l 1.368392,-2.63815 z m 33.807121,0.86613 -0.52762,1.13275 2.2226,0.016 0.56844,-1.14888 z m 3.28713,-1.3e-4 -2.59674,5.492 2.17093,-1.7e-4 1.26452,-2.49183 h 2.13837 l 1.3746,-3 z m -23.673487,0.63059 h 2.308907 l -0.21498,0.38499 c -0.488789,0.87205 -0.977785,1.74485 -1.466575,2.6169 l -0.07648,0.13487 -0.153996,-0.002 c -0.57806,-0.008 -1.156388,-0.0153 -1.734778,-0.0233 l -0.439249,-0.006 0.218591,-0.38241 c 0.49468,-0.86438 0.989984,-1.7277 1.484664,-2.59208 z m 7.101897,0.076 2.31407,5.1e-4 -0.22066,0.38654 c -0.49437,0.87213 -0.98771,1.74478 -1.48208,2.6169 l -0.0765,0.13281 -0.154,-0.002 c -0.5726,-0.008 -1.14437,-0.0158 -1.71721,-0.0238 l -0.44131,-0.006 0.2191,-0.38292 c 0.49472,-0.86435 0.98942,-1.72773 1.48415,-2.59209 z m 18.41127,0.15554 h 1.25523 l -0.48215,0.96274 -1.21956,-0.0191 z m -5.92418,0.87954 -1.78646,3.75033 h 2.27842 l 1.80764,-3.72915 z" /></g><path
     style="fill:url(#pattern167);fill-opacity:1;fill-rule:evenodd;stroke:#000000;stroke-width:0;stroke-linejoin:miter;stroke-dasharray:none;stroke-opacity:1"
     d="M 23.173468,5.0695165 79.232724,4.9599833 73.645816,0.11012472 25.31035,0 Z"
     id="path167" /></svg>
